<svg width="887" height="229" viewBox="0 0 887 229" fill="none" xmlns="http://www.w3.org/2000/svg">
  <g clip-path="url(#clip0_1025_37246)">
    <rect y="-0.000244141" width="228.595" height="228.595" rx="61.3221" fill="url(#paint0_linear_1025_37246)" />
    <mask id="mask0_1025_37246" style="mask-type:alpha" maskUnits="userSpaceOnUse" x="56" y="46" width="117"
      height="135">
      <path
        d="M146.135 46.291L59.3142 67.8754C57.4918 68.3284 56.2124 69.9648 56.2124 71.8427V157.936C56.2124 159.007 56.6329 160.036 57.3834 160.8L72.9723 176.678C73.9865 177.711 75.4714 178.13 76.8762 177.781L108.166 169.998L119.153 179.544C120.02 180.297 121.337 180.188 122.069 179.303L134.394 164.391C134.95 163.718 135.707 163.241 136.553 163.029L167.662 155.252C169.445 154.806 170.712 153.225 170.757 151.387L172.843 66.6594C172.875 65.3407 172.27 64.0874 171.216 63.2937L149.581 46.9933C148.597 46.2517 147.331 45.9937 146.135 46.291Z"
        fill="#102B32" />
    </mask>
    <g mask="url(#mask0_1025_37246)">
      <path
        d="M143.937 134.909L148.025 45.8213L172.894 64.5586L170.68 156.031L136.953 165.095L122.644 182.604L111.738 171.77L73.7568 180.559L53.8271 159.097L88.7467 148.195L99.6484 157.393L109.358 142.233L143.937 134.909Z"
        fill="url(#paint1_linear_1025_37246)" />
      <path
        d="M148.025 45.8213L56.2119 68.6467V159.608L89.2577 151.27L98.5873 160.018C99.5027 160.876 100.968 160.715 101.675 159.678L110.891 146.151L144.971 137.24C146.77 136.77 148.025 135.145 148.025 133.285V45.8213Z"
        fill="url(#paint2_linear_1025_37246)" />
      <path fill-rule="evenodd" clip-rule="evenodd"
        d="M149.914 135.182L150.921 38.6884L146.833 38.6458L145.827 135.024L111.656 143.843C110.343 144.182 109.203 144.997 108.46 146.131L101.034 157.452C100.567 158.164 99.5695 158.278 98.9538 157.69L92.0351 151.086C90.6758 149.789 88.7442 149.283 86.9235 149.748L56.0702 157.622L51.6646 158.638L52.5838 162.622L57.0126 161.6C57.0234 161.597 57.0342 161.595 57.0449 161.592L57.0585 161.588L87.9344 153.709C88.3896 153.593 88.8725 153.719 89.2123 154.043L95.9667 160.491C96.0601 160.616 96.1693 160.732 96.2941 160.836L122.186 182.469L124.807 179.332L103.05 161.153C103.587 160.772 104.065 160.285 104.453 159.694L111.226 149.368L138.578 171.088L141.12 167.887L115.054 147.188L147.798 138.738L175.509 161.693L178.117 158.545L149.914 135.182Z"
        fill="url(#paint3_linear_1025_37246)" />
    </g>
    <path
      d="M81.5183 116.073C79.0164 116.073 77.2223 115.169 76.0552 114.269C71.6526 110.876 71.5259 104.082 71.5259 103.318V86.7977C71.5259 85.2571 72.5644 83.9118 74.0545 83.5205L91.1781 79.0236C91.2267 79.0102 91.2772 78.9979 91.3277 78.9855L103.857 75.6949C103.903 75.6816 103.95 75.6701 103.996 75.6597L121.13 71.1599C122.146 70.8905 123.228 71.1123 124.062 71.755C124.894 72.3949 125.382 73.387 125.382 74.4362V90.6339C125.403 91.0852 125.808 104.832 114.479 107.804C110.314 108.9 107.532 107.66 105.929 106.425C101.527 103.032 101.4 96.2362 101.4 95.4726V86.3068C101.4 84.8105 99.9848 83.7188 98.5375 84.0988L97.2105 84.4472C96.207 84.7107 95.5074 85.6177 95.5074 86.6552V98.4794C95.5284 98.9317 95.9333 112.674 84.6051 115.65C83.4771 115.947 82.4491 116.073 81.5183 116.073Z"
      fill="url(#paint4_linear_1025_37246)" />
    <mask id="mask1_1025_37246" style="mask-type:alpha" maskUnits="userSpaceOnUse" x="71" y="71" width="55" height="46">
      <path
        d="M81.5178 116.22C79.0159 116.22 77.2219 115.317 76.0547 114.416C71.6521 111.023 71.5254 104.229 71.5254 103.465V86.9449C71.5254 85.4044 72.5639 84.059 74.054 83.6677L91.1776 79.1708C91.2262 79.1574 91.2767 79.1451 91.3272 79.1327L103.857 75.8422C103.902 75.8288 103.949 75.8174 103.996 75.8069L121.129 71.3072C122.146 71.0377 123.228 71.2596 124.062 71.9022C124.893 72.5421 125.381 73.5342 125.381 74.5834V90.7811C125.402 91.2324 125.807 104.979 114.479 107.951C110.314 109.048 107.531 107.807 105.929 106.572C101.526 103.179 101.4 96.3834 101.4 95.6198V86.454C101.4 84.9578 99.9843 83.866 98.537 84.246L97.21 84.5945C96.2065 84.8579 95.5069 85.765 95.5069 86.8025V98.6266C95.5279 99.0789 95.9328 112.821 84.6047 115.797C83.4766 116.094 82.4486 116.22 81.5178 116.22Z"
        fill="white" />
    </mask>
    <g mask="url(#mask1_1025_37246)">
      <path
        d="M70.6729 111.859L78.4647 100.843C78.7395 100.455 79.2633 100.336 79.6784 100.569L84.4918 103.268C84.9085 103.501 85.4345 103.381 85.7084 102.989L97.4011 86.2725"
        stroke="white" stroke-width="3.54355" stroke-linecap="round" />
      <path
        d="M100.541 103.489L108.332 92.4729C108.607 92.0844 109.131 91.9661 109.546 92.1988L114.359 94.8972C114.776 95.1308 115.302 95.0106 115.576 94.6191L127.269 77.9021"
        stroke="white" stroke-width="3.54355" stroke-linecap="square" />
    </g>
    <path d="M86.8438 123.749C93.2167 128.41 101.207 128.505 109.387 118.327" stroke="#00663D" stroke-width="5.7071"
      stroke-linecap="round" />
    <path d="M86.8438 123.749C93.2167 128.41 101.207 128.505 109.387 118.327" stroke="url(#paint5_linear_1025_37246)"
      stroke-width="5.7071" stroke-linecap="round" />
    <path
      d="M59.4889 65.843L59.9521 67.8028L59.4889 65.843C57.5144 66.3096 56.1198 68.0723 56.1198 70.1011V158.038C56.1198 159.152 56.5448 160.224 57.308 161.036L72.345 177.023C73.4064 178.152 74.9854 178.635 76.4966 178.293L110.841 170.532L119.75 177.908C121.717 179.535 124.653 179.141 126.121 177.053L134.175 165.591L168.871 155.245C170.705 154.698 171.971 153.023 171.996 151.109L173.101 66.0067C173.118 64.6648 172.519 63.3892 171.475 62.546L150.95 45.9685C149.898 45.1184 148.511 44.803 147.195 45.1142L59.4889 65.843Z"
      stroke="url(#paint6_linear_1025_37246)" stroke-width="4.18521" stroke-linecap="round" />
  </g>
  <path
    d="M801.21 85.8189H809.943L809.725 100.119H809.834C810.998 95.3889 813.218 91.6774 816.493 88.9846C819.841 86.2919 823.916 84.9456 828.719 84.9456C833.959 84.9456 838.253 86.2191 841.601 88.7663C844.948 91.3135 846.95 94.7704 847.605 99.1369H847.714C848.66 94.7704 850.807 91.3135 854.155 88.7663C857.502 86.2191 861.687 84.9456 866.709 84.9456C870.711 84.9456 874.168 85.7825 877.079 87.4563C879.99 89.1302 882.21 91.5318 883.738 94.6612C885.267 97.7906 886.031 101.429 886.031 105.578V139.746H877.298V107.433C877.298 102.849 876.17 99.2825 873.913 96.7353C871.73 94.1154 868.528 92.8054 864.307 92.8054C861.032 92.8054 858.157 93.6059 855.683 95.207C853.209 96.7353 851.316 98.9914 850.006 101.975C848.696 104.959 848.041 108.489 848.041 112.564V139.746H839.308V107.106C839.308 102.667 838.18 99.1733 835.924 96.6261C833.668 94.079 830.43 92.8054 826.209 92.8054C822.934 92.8054 820.059 93.6059 817.585 95.207C815.11 96.8081 813.218 99.1369 811.908 102.194C810.598 105.177 809.943 108.78 809.943 113.001V139.746H801.21V85.8189Z"
    fill="black" />
  <path
    d="M765.23 140.619C759.699 140.619 754.859 139.491 750.711 137.235C746.636 134.979 743.47 131.777 741.214 127.629C739.031 123.408 737.939 118.532 737.939 113.001C737.939 107.324 739.031 102.375 741.214 98.1544C743.47 93.9334 746.636 90.6948 750.711 88.4388C754.859 86.11 759.699 84.9456 765.23 84.9456C770.761 84.9456 775.564 86.11 779.639 88.4388C783.788 90.6948 786.953 93.9334 789.137 98.1544C791.393 102.375 792.521 107.324 792.521 113.001C792.521 118.532 791.393 123.408 789.137 127.629C786.953 131.777 783.788 134.979 779.639 137.235C775.564 139.491 770.761 140.619 765.23 140.619ZM765.23 132.759C769.014 132.759 772.289 131.959 775.055 130.358C777.82 128.684 779.967 126.355 781.495 123.371C783.024 120.387 783.788 116.858 783.788 112.782C783.788 108.78 783.024 105.286 781.495 102.303C779.967 99.246 777.82 96.9172 775.055 95.3161C772.289 93.6423 769.014 92.8053 765.23 92.8053C761.446 92.8053 758.171 93.6423 755.405 95.3161C752.64 96.9172 750.493 99.246 748.964 102.303C747.436 105.286 746.672 108.816 746.672 112.891C746.672 116.894 747.436 120.387 748.964 123.371C750.493 126.355 752.64 128.684 755.405 130.358C758.171 131.959 761.446 132.759 765.23 132.759Z"
    fill="black" />
  <path
    d="M706.237 140.619C701.07 140.619 696.521 139.491 692.591 137.235C688.734 134.979 685.75 131.74 683.64 127.519C681.529 123.298 680.474 118.386 680.474 112.782C680.474 107.179 681.529 102.266 683.64 98.0452C685.823 93.8242 688.916 90.5857 692.919 88.3296C696.921 86.0736 701.579 84.9456 706.892 84.9456C711.622 84.9456 715.77 85.8553 719.336 87.6746C722.975 89.494 725.741 92.114 727.633 95.5344C729.598 98.9549 730.58 102.921 730.58 107.433H722.502C722.502 104.449 721.847 101.866 720.537 99.6826C719.227 97.4994 717.408 95.8255 715.079 94.6611C712.823 93.4239 710.13 92.8053 707.001 92.8053C703.435 92.8053 700.306 93.6423 697.613 95.3161C694.92 96.9172 692.846 99.246 691.39 102.303C689.935 105.286 689.207 108.78 689.207 112.782C689.207 116.785 689.899 120.315 691.281 123.371C692.737 126.355 694.738 128.684 697.285 130.358C699.905 131.959 702.962 132.759 706.455 132.759C709.73 132.759 712.568 132.177 714.97 131.013C717.444 129.848 719.336 128.174 720.646 125.991C722.029 123.808 722.72 121.261 722.72 118.35H730.799C730.799 122.789 729.78 126.719 727.742 130.139C725.777 133.487 722.939 136.07 719.227 137.89C715.516 139.709 711.185 140.619 706.237 140.619Z"
    fill="black" />
  <path
    d="M611.532 140.618C605.564 140.618 600.397 139.527 596.03 137.344C591.664 135.16 588.316 132.031 585.987 127.956C583.659 123.88 582.494 119.004 582.494 113.328C582.494 107.433 583.659 102.375 585.987 98.1539C588.389 93.8601 591.773 90.5852 596.14 88.3291C600.579 86.0731 605.819 84.9451 611.859 84.9451C616.953 84.9451 621.429 85.9275 625.286 87.8925C629.143 89.8574 632.127 92.8048 634.238 96.7347C636.421 100.665 637.513 105.504 637.513 111.253V115.948H588.28L588.716 107.105H622.885V106.232C622.885 104.194 622.448 102.484 621.575 101.101C620.701 99.7185 619.428 98.6997 617.754 98.0447C616.153 97.3169 614.188 96.9531 611.859 96.9531C608.948 96.9531 606.547 97.5353 604.654 98.6997C602.762 99.7913 601.343 101.538 600.397 103.94C599.524 106.341 599.087 109.47 599.087 113.328C599.087 116.821 599.56 119.695 600.506 121.952C601.525 124.208 602.981 125.881 604.873 126.973C606.765 128.065 609.094 128.611 611.859 128.611C614.042 128.611 615.935 128.356 617.536 127.846C619.137 127.264 620.374 126.427 621.247 125.336C622.193 124.244 622.739 122.825 622.885 121.078H637.513C637.44 125.154 636.312 128.647 634.129 131.558C631.945 134.469 628.889 136.725 624.959 138.326C621.102 139.854 616.626 140.618 611.532 140.618Z"
    fill="black" />
  <path
    d="M485.934 85.8184H502.527L501.981 99.7914H502.09C503.4 95.061 505.583 91.4222 508.64 88.875C511.769 86.255 515.735 84.9451 520.539 84.9451C525.706 84.9451 529.89 86.2187 533.093 88.7658C536.295 91.2402 538.187 94.6607 538.769 99.0273H538.878C539.97 94.5151 542.044 91.0583 545.101 88.6567C548.23 86.1823 552.306 84.9451 557.327 84.9451C561.257 84.9451 564.568 85.7456 567.261 87.3467C570.027 88.9478 572.137 91.2402 573.593 94.224C575.048 97.2079 575.776 100.81 575.776 105.031V139.746H559.183V108.852C559.183 105.65 558.382 103.176 556.781 101.429C555.253 99.6095 553.07 98.6998 550.231 98.6998C548.048 98.6998 546.12 99.282 544.446 100.446C542.772 101.538 541.462 103.212 540.516 105.468C539.57 107.724 539.097 110.453 539.097 113.655V139.746H522.504V108.852C522.504 105.65 521.703 103.176 520.102 101.429C518.574 99.6095 516.39 98.6998 513.552 98.6998C511.369 98.6998 509.44 99.282 507.766 100.446C506.165 101.611 504.892 103.357 503.946 105.686C503 107.942 502.527 110.708 502.527 113.983V139.746H485.934V85.8184Z"
    fill="black" />
  <path d="M460.572 85.8189H477.165V139.746H460.572V85.8189ZM460.572 66.9333H477.165V80.1423H460.572V66.9333Z"
    fill="black" />
  <path
    d="M442.122 140.619C434.044 140.619 428.221 138.982 424.655 135.707C421.089 132.359 419.306 127.519 419.306 121.188V98.7001H411.337V85.8187H417.778C419.015 85.8187 419.889 85.4548 420.398 84.727C420.98 83.9993 421.344 82.7985 421.49 81.1246L422.254 73.5923H435.899V85.8187H453.147V98.7001H435.899V120.315C435.899 122.207 436.19 123.699 436.773 124.79C437.428 125.809 438.41 126.537 439.72 126.974C441.03 127.41 442.813 127.629 445.069 127.629C446.306 127.629 447.616 127.556 448.999 127.41C450.455 127.265 451.655 127.083 452.601 126.864V139.418C451.437 139.709 449.872 139.964 447.907 140.182C446.015 140.474 444.087 140.619 442.122 140.619Z"
    fill="black" />
  <path
    d="M347.887 85.8189H364.48L364.152 96.8446H364.261C364.916 94.3701 366.081 92.2596 367.755 90.513C369.501 88.6936 371.612 87.3108 374.086 86.3647C376.634 85.4186 379.435 84.9456 382.492 84.9456C387.441 84.9456 391.807 86.0736 395.592 88.3297C399.376 90.513 402.287 93.6424 404.325 97.7179C406.363 101.721 407.382 106.342 407.382 111.582C407.382 117.331 406.326 122.426 404.216 126.865C402.178 131.232 399.267 134.616 395.483 137.017C391.771 139.419 387.404 140.62 382.383 140.62C379.181 140.62 376.342 140.219 373.868 139.419C371.394 138.546 369.319 137.308 367.646 135.707C366.045 134.106 364.844 132.214 364.043 130.031H363.934C364.08 131.777 364.189 133.524 364.261 135.271C364.334 137.163 364.407 139.055 364.48 140.947V161.361H347.887V85.8189ZM378.453 127.957C380.927 127.957 383.074 127.302 384.894 125.992C386.786 124.682 388.241 122.862 389.26 120.533C390.352 118.132 390.898 115.366 390.898 112.237C390.898 109.326 390.352 106.779 389.26 104.595C388.241 102.412 386.786 100.702 384.894 99.4645C383.001 98.2273 380.818 97.6087 378.344 97.6087C375.578 97.6087 373.14 98.2273 371.03 99.4645C368.992 100.702 367.391 102.485 366.226 104.814C365.062 107.07 364.48 109.69 364.48 112.673V115.075C364.48 117.622 365.062 119.878 366.226 121.843C367.391 123.808 369.028 125.337 371.139 126.428C373.249 127.447 375.687 127.957 378.453 127.957Z"
    fill="black" />
  <path
    d="M303.202 140.62C298.471 140.62 294.396 139.819 290.975 138.218C287.628 136.544 285.044 134.033 283.225 130.686C281.405 127.265 280.496 122.971 280.496 117.804V85.8191H297.089V115.839C297.089 118.314 297.525 120.388 298.399 122.062C299.272 123.663 300.545 124.864 302.219 125.664C303.893 126.465 305.931 126.865 308.332 126.865C311.316 126.865 313.863 126.21 315.974 124.9C318.157 123.59 319.795 121.625 320.886 119.005C322.051 116.312 322.633 113.037 322.633 109.18V85.8191H339.226V139.746H322.633C323.07 134.943 323.324 130.249 323.397 125.664H323.179C322.378 129.085 321.068 131.923 319.249 134.179C317.43 136.362 315.173 138 312.481 139.091C309.788 140.11 306.695 140.62 303.202 140.62Z"
    fill="black" />
  <path fill-rule="evenodd" clip-rule="evenodd"
    d="M658.451 140.846C665.861 140.846 671.868 134.838 671.868 127.428C671.868 124.034 670.609 120.935 668.531 118.572L660.341 130.281C659.747 131.129 658.607 131.39 657.704 130.883L654.605 129.147L649.118 136.905L649.05 137.002C651.471 139.379 654.789 140.846 658.451 140.846ZM647.301 134.895L652.774 127.158C653.369 126.316 654.505 126.059 655.405 126.564L658.5 128.299L666.578 116.75C664.323 115.031 661.506 114.01 658.451 114.01C651.04 114.01 645.033 120.017 645.033 127.428C645.033 130.192 645.868 132.76 647.301 134.895Z"
    fill="#D9D9D9" />
  <path fill-rule="evenodd" clip-rule="evenodd"
    d="M658.451 140.846C665.861 140.846 671.868 134.838 671.868 127.428C671.868 124.034 670.609 120.935 668.531 118.572L660.341 130.281C659.747 131.129 658.607 131.39 657.704 130.883L654.605 129.147L649.118 136.905L649.05 137.002C651.471 139.379 654.789 140.846 658.451 140.846ZM647.301 134.895L652.774 127.158C653.369 126.316 654.505 126.059 655.405 126.564L658.5 128.299L666.578 116.75C664.323 115.031 661.506 114.01 658.451 114.01C651.04 114.01 645.033 120.017 645.033 127.428C645.033 130.192 645.868 132.76 647.301 134.895Z"
    fill="url(#paint7_linear_1025_37246)" />
  <defs>
    <linearGradient id="paint0_linear_1025_37246" x1="14.7609" y1="228.595" x2="227.64" y2="-0.000238089"
      gradientUnits="userSpaceOnUse">
      <stop stop-color="#039C5F" />
      <stop offset="0.46" stop-color="#99DDC2" />
    </linearGradient>
    <linearGradient id="paint1_linear_1025_37246" x1="81.813" y1="198.019" x2="203.601" y2="110.444"
      gradientUnits="userSpaceOnUse">
      <stop stop-color="#03AB68" />
      <stop offset="0.195503" stop-color="#039158" />
      <stop offset="0.255" stop-color="#027849" />
      <stop offset="0.403528" stop-color="#028953" />
      <stop offset="0.625969" stop-color="#35BC86" />
      <stop offset="0.74202" stop-color="#00AA66" />
      <stop offset="0.841442" stop-color="#35BC86" />
      <stop offset="0.956932" stop-color="#03AB68" />
    </linearGradient>
    <linearGradient id="paint2_linear_1025_37246" x1="99.989" y1="81.933" x2="99.478" y2="186.351"
      gradientUnits="userSpaceOnUse">
      <stop offset="0.202064" stop-color="white" />
      <stop offset="1" stop-color="#AAD9C6" />
    </linearGradient>
    <linearGradient id="paint3_linear_1025_37246" x1="59.8298" y1="182.469" x2="193.883" y2="55.9052"
      gradientUnits="userSpaceOnUse">
      <stop stop-color="#004429" />
      <stop offset="0.495" stop-color="#00663D" />
      <stop offset="1" stop-color="#03AB68" />
    </linearGradient>
    <linearGradient id="paint4_linear_1025_37246" x1="75.0039" y1="116.073" x2="115.755" y2="63.7243"
      gradientUnits="userSpaceOnUse">
      <stop stop-color="#004429" />
      <stop offset="0.495" stop-color="#00663D" />
      <stop offset="1" stop-color="#03AB68" />
    </linearGradient>
    <linearGradient id="paint5_linear_1025_37246" x1="88.2994" y1="126.786" x2="93.2181" y2="112.71"
      gradientUnits="userSpaceOnUse">
      <stop stop-color="#004429" />
      <stop offset="0.495" stop-color="#00663D" />
      <stop offset="1" stop-color="#03AB68" />
    </linearGradient>
    <linearGradient id="paint6_linear_1025_37246" x1="65.4968" y1="177.871" x2="187.408" y2="65.1186"
      gradientUnits="userSpaceOnUse">
      <stop stop-color="#004429" />
      <stop offset="0.495" stop-color="#00663D" />
      <stop offset="1" stop-color="#03AB68" />
    </linearGradient>
    <linearGradient id="paint7_linear_1025_37246" x1="646.232" y1="141.417" x2="671.745" y2="114.025"
      gradientUnits="userSpaceOnUse">
      <stop stop-color="#004429" />
      <stop offset="0.145" stop-color="#00663D" />
      <stop offset="0.6" stop-color="#03AB68" />
      <stop offset="1" stop-color="#50C596" />
    </linearGradient>
    <clipPath id="clip0_1025_37246">
      <rect width="228.284" height="228.284" rx="61.3221" fill="white" />
    </clipPath>
  </defs>
</svg>